# xmcd
#
# Track frame offsets:
#	150
#	33648
#	72004
#	98799
#	127395
#	259518
#
# Disc length: 3880 seconds
#
# Revision: 0
# Processed by: cddbd v1.5.2PL0 Copyright (c) Steve Scherf et al.
# Submitted via: audiograbber 1.83.01
#
DISCID=520f2606
DTITLE=Grateful Dead - 94-06-14 Seattle Centre Memorial Stadium, Seattle WA
DYEAR=1900
DGENRE=
TTITLE0=Samba In The Rain
TTITLE1=Truckin'
TTITLE2=That Would Be Something
TTITLE3=Drums
TTITLE4=Space
TTITLE5=Way To Go Home
EXTD=
EXTT0=
EXTT1=
EXTT2=
EXTT3=
EXTT4=
EXTT5=
PLAYORDER=
